RobotoSerifMicro-HairlineWideItalic.ufo
<glyph name="plus" format="2">
  <advance width="594"/>
  <unicode hex="002B"/>
  <outline>
    <contour>
      <point x="330" y="567" type="line"/>
      <point x="210" y="115" type="line"/>
      <point x="263" y="115" type="line"/>
      <point x="383" y="567" type="line"/>
    </contour>
    <contour>
      <point x="537" y="365" type="line"/>
      <point x="68" y="365" type="line"/>
      <point x="55" y="317" type="line"/>
      <point x="525" y="317" type="line"/>
    </contour>
  </outline>
</glyph>
<glyph name="period" format="2">
  <advance width="347"/>
  <unicode hex="002E"/>
  <outline>
    <contour>
      <point x="227" y="53" type="curve" smooth="yes"/>
      <point x="227" y="92"/>
      <point x="197" y="116"/>
      <point x="152" y="116" type="curve" smooth="yes"/>
      <point x="110" y="116"/>
      <point x="80" y="92"/>
      <point x="80" y="53" type="curve" smooth="yes"/>
      <point x="80" y="15"/>
      <point x="110" y="-10"/>
      <point x="152" y="-10" type="curve" smooth="yes"/>
      <point x="197" y="-10"/>
      <point x="227" y="15"/>
    </contour>
  </outline>
</glyph>
<glyph name="slash" format="2">
  <advance width="546"/>
  <unicode hex="002F"/>
  <outline>
    <contour>
      <point x="567" y="780" type="line"/>
      <point x="-70" y="-158" type="line"/>
      <point x="-21" y="-158" type="line"/>
      <point x="616" y="780" type="line"/>
    </contour>
  </outline>
</glyph>
<glyph name="two" format="2">
  <advance width="594"/>
  <unicode hex="0032"/>
  <outline>
    <contour>
      <point x="-18" y="0" type="line"/>
      <point x="-6" y="40" type="line"/>
      <point x="333" y="282"/>
      <point x="489" y="372"/>
      <point x="489" y="538" type="curve" smooth="yes"/>
      <point x="489" y="615"/>
      <point x="432" y="649"/>
      <point x="342" y="649" type="curve" smooth="yes"/>
      <point x="271" y="649"/>
      <point x="204" y="625"/>
      <point x="167" y="612" type="curve"/>
      <point x="178" y="618"/>
      <point x="219" y="648"/>
      <point x="215" y="630" type="curve" smooth="yes"/>
      <point x="173" y="473" type="line"/>
      <point x="109" y="473" type="line"/>
      <point x="156" y="653" type="line"/>
      <point x="182" y="663"/>
      <point x="261" y="693"/>
      <point x="346" y="693" type="curve" smooth="yes"/>
      <point x="469" y="693"/>
      <point x="549" y="645"/>
      <point x="549" y="538" type="curve" smooth="yes"/>
      <point x="549" y="357"/>
      <point x="320" y="230"/>
      <point x="27" y="26" type="curve"/>
      <point x="21" y="33" type="line"/>
      <point x="289" y="33" type="line" smooth="yes"/>
      <point x="376" y="33"/>
      <point x="412" y="40"/>
      <point x="425" y="74" type="curve" smooth="yes"/>
      <point x="463" y="181" type="line"/>
      <point x="510" y="181" type="line"/>
      <point x="463" y="0" type="line"/>
    </contour>
  </outline>
</glyph>
<glyph name="K" format="2">
  <advance width="793"/>
  <unicode hex="004B"/>
  <anchor x="408" y="741" name="top"/>
  <anchor x="408" y="0" name="bottom"/>
  <outline>
    <contour>
      <point x="-25" y="0" type="line"/>
      <point x="229" y="0" type="line"/>
      <point x="241" y="44" type="line"/>
      <point x="232" y="44" type="line" smooth="yes"/>
      <point x="191" y="44"/>
      <point x="140" y="47"/>
      <point x="142" y="54" type="curve" smooth="yes"/>
      <point x="301" y="656" type="line" smooth="yes"/>
      <point x="303" y="663"/>
      <point x="355" y="666"/>
      <point x="396" y="666" type="curve" smooth="yes"/>
      <point x="405" y="666" type="line"/>
      <point x="417" y="710" type="line"/>
      <point x="164" y="710" type="line"/>
      <point x="152" y="666" type="line"/>
      <point x="163" y="666" type="line" smooth="yes"/>
      <point x="215" y="666"/>
      <point x="251" y="659"/>
      <point x="244" y="630" type="curve" smooth="yes"/>
      <point x="99" y="80" type="line" smooth="yes"/>
      <point x="91" y="51"/>
      <point x="51" y="44"/>
      <point x="-1" y="44" type="curve" smooth="yes"/>
      <point x="-13" y="44" type="line"/>
    </contour>
    <contour>
      <point x="431" y="0" type="line"/>
      <point x="702" y="0" type="line"/>
      <point x="715" y="44" type="line"/>
      <point x="696" y="44" type="line" smooth="yes"/>
      <point x="653" y="44"/>
      <point x="631" y="47"/>
      <point x="610" y="71" type="curve" smooth="yes"/>
      <point x="326" y="383" type="line"/>
      <point x="332" y="346" type="line"/>
      <point x="701" y="637" type="line" smooth="yes"/>
      <point x="730" y="661"/>
      <point x="755" y="666"/>
      <point x="789" y="666" type="curve" smooth="yes"/>
      <point x="809" y="666" type="line"/>
      <point x="822" y="710" type="line"/>
      <point x="575" y="710" type="line"/>
      <point x="563" y="666" type="line"/>
      <point x="572" y="666" type="line" smooth="yes"/>
      <point x="617" y="666"/>
      <point x="660" y="662"/>
      <point x="657" y="655" type="curve"/>
      <point x="291" y="364" type="line"/>
      <point x="288" y="359" type="line"/>
      <point x="558" y="54" type="line"/>
      <point x="556" y="47"/>
      <point x="508" y="44"/>
      <point x="465" y="44" type="curve" smooth="yes"/>
      <point x="443" y="44" type="line"/>
    </contour>
  </outline>
</glyph>
<glyph name="O" format="2">
  <advance width="912"/>
  <unicode hex="004F"/>
  <anchor x="485" y="741" name="top"/>
  <anchor x="485" y="0" name="bottom"/>
  <outline>
    <contour>
      <point x="903" y="379" type="curve" smooth="yes"/>
      <point x="903" y="577"/>
      <point x="781" y="738"/>
      <point x="532" y="738" type="curve" smooth="yes"/>
      <point x="270" y="738"/>
      <point x="122" y="538"/>
      <point x="122" y="331" type="curve" smooth="yes"/>
      <point x="122" y="136"/>
      <point x="247" y="-27"/>
      <point x="500" y="-27" type="curve" smooth="yes"/>
      <point x="760" y="-27"/>
      <point x="903" y="172"/>
    </contour>
    <contour>
      <point x="499" y="14" type="curve" smooth="yes"/>
      <point x="398" y="14"/>
      <point x="322" y="45"/>
      <point x="269" y="95" type="curve" smooth="yes"/>
      <point x="208" y="153"/>
      <point x="180" y="235"/>
      <point x="180" y="324" type="curve" smooth="yes"/>
      <point x="180" y="519"/>
      <point x="297" y="697"/>
      <point x="533" y="697" type="curve" smooth="yes"/>
      <point x="638" y="697"/>
      <point x="714" y="664"/>
      <point x="764" y="613" type="curve" smooth="yes"/>
      <point x="821" y="555"/>
      <point x="845" y="473"/>
      <point x="845" y="386" type="curve" smooth="yes"/>
      <point x="845" y="198"/>
      <point x="736" y="14"/>
    </contour>
  </outline>
</glyph>
<glyph name="X" format="2">
  <advance width="780"/>
  <unicode hex="0058"/>
  <outline>
    <contour>
      <point x="128" y="666" type="line"/>
      <point x="145" y="666" type="line" smooth="yes"/>
      <point x="185" y="666"/>
      <point x="205" y="664"/>
      <point x="222" y="632" type="curve"/>
      <point x="375" y="359" type="line"/>
      <point x="382" y="352" type="line"/>
      <point x="554" y="54" type="line"/>
      <point x="552" y="47"/>
      <point x="502" y="44"/>
      <point x="464" y="44" type="curve" smooth="yes"/>
      <point x="446" y="44" type="line"/>
      <point x="434" y="0" type="line"/>
      <point x="684" y="0" type="line"/>
      <point x="696" y="44" type="line"/>
      <point x="673" y="44" type="line" smooth="yes"/>
      <point x="634" y="44"/>
      <point x="613" y="48"/>
      <point x="598" y="78" type="curve"/>
      <point x="419" y="382" type="line"/>
      <point x="409" y="392" type="line"/>
      <point x="263" y="657" type="line"/>
      <point x="265" y="663"/>
      <point x="315" y="666"/>
      <point x="353" y="666" type="curve" smooth="yes"/>
      <point x="371" y="666" type="line"/>
      <point x="383" y="710" type="line"/>
      <point x="141" y="710" type="line"/>
    </contour>
    <contour>
      <point x="-56" y="0" type="line"/>
      <point x="199" y="0" type="line"/>
      <point x="212" y="44" type="line"/>
      <point x="191" y="44" type="line" smooth="yes"/>
      <point x="152" y="44"/>
      <point x="108" y="52"/>
      <point x="111" y="61" type="curve"/>
      <point x="403" y="358" type="line"/>
      <point x="376" y="385" type="line"/>
      <point x="82" y="90" type="line" smooth="yes"/>
      <point x="44" y="53"/>
      <point x="16" y="44"/>
      <point x="-22" y="44" type="curve" smooth="yes"/>
      <point x="-44" y="44" type="line"/>
    </contour>
    <contour>
      <point x="419" y="357" type="line"/>
      <point x="692" y="621" type="line" smooth="yes"/>
      <point x="731" y="660"/>
      <point x="760" y="666"/>
      <point x="799" y="666" type="curve" smooth="yes"/>
      <point x="815" y="666" type="line"/>
      <point x="827" y="710" type="line"/>
      <point x="577" y="710" type="line"/>
      <point x="565" y="666" type="line"/>
      <point x="581" y="666" type="line" smooth="yes"/>
      <point x="620" y="666"/>
      <point x="667" y="659"/>
      <point x="664" y="649" type="curve"/>
      <point x="392" y="382" type="line"/>
    </contour>
  </outline>
</glyph>
<glyph name="grave" format="2">
  <advance width="530"/>
  <unicode hex="0060"/>
  <anchor x="230" y="531" name="_top"/>
  <outline>
    <contour>
      <point x="301" y="788" type="curve" smooth="yes"/>
      <point x="355" y="679" type="line"/>
      <point x="349" y="661" type="line"/>
      <point x="327" y="661" type="line"/>
      <point x="232" y="768" type="line" smooth="yes"/>
      <point x="214" y="789"/>
      <point x="199" y="805"/>
      <point x="199" y="822" type="curve" smooth="yes"/>
      <point x="199" y="842"/>
      <point x="217" y="855"/>
      <point x="240" y="855" type="curve" smooth="yes"/>
      <point x="273" y="855"/>
      <point x="281" y="832"/>
    </contour>
  </outline>
</glyph>
<glyph name="p" format="2">
  <advance width="695"/>
  <unicode hex="0070"/>
  <outline>
    <contour>
      <point x="-87" y="-223" type="line"/>
      <point x="179" y="-223" type="line"/>
      <point x="188" y="-186" type="line"/>
      <point x="166" y="-186" type="line" smooth="yes"/>
      <point x="108" y="-186"/>
      <point x="70" y="-183"/>
      <point x="72" y="-176" type="curve" smooth="yes"/>
      <point x="228" y="424" type="line"/>
      <point x="223" y="425" type="line"/>
      <point x="233" y="565" type="line"/>
      <point x="102" y="565" type="line"/>
      <point x="90" y="528" type="line"/>
      <point x="101" y="526" type="line" smooth="yes"/>
      <point x="155" y="516"/>
      <point x="195" y="490"/>
      <point x="189" y="465" type="curve" smooth="yes"/>
      <point x="39" y="-110" type="line"/>
      <point x="23" y="-169"/>
      <point x="-14" y="-186"/>
      <point x="-74" y="-186" type="curve" smooth="yes"/>
      <point x="-78" y="-186" type="line"/>
    </contour>
    <contour>
      <point x="648" y="372" type="curve" smooth="yes"/>
      <point x="648" y="504"/>
      <point x="582" y="576"/>
      <point x="465" y="576" type="curve" smooth="yes"/>
      <point x="380" y="576"/>
      <point x="300" y="519"/>
      <point x="216" y="435" type="curve"/>
      <point x="210" y="391" type="line"/>
      <point x="289" y="465"/>
      <point x="374" y="536"/>
      <point x="465" y="536" type="curve" smooth="yes"/>
      <point x="542" y="536"/>
      <point x="593" y="484"/>
      <point x="593" y="372" type="curve" smooth="yes"/>
      <point x="593" y="241"/>
      <point x="535" y="28"/>
      <point x="356" y="28" type="curve" smooth="yes"/>
      <point x="250" y="28"/>
      <point x="188" y="105"/>
      <point x="163" y="201" type="curve"/>
      <point x="143" y="169" type="line"/>
      <point x="175" y="50"/>
      <point x="248" y="-12"/>
      <point x="354" y="-12" type="curve" smooth="yes"/>
      <point x="556" y="-12"/>
      <point x="648" y="207"/>
    </contour>
  </outline>
</glyph>
<glyph name="w" format="2">
  <advance width="947"/>
  <unicode hex="0077"/>
  <anchor x="481" y="565" name="top"/>
  <outline>
    <contour>
      <point x="515" y="565" type="line"/>
      <point x="421" y="378"/>
      <point x="327" y="192"/>
      <point x="232" y="5" type="curve"/>
      <point x="242" y="-10" type="line"/>
      <point x="212" y="565" type="line"/>
      <point x="78" y="565" type="line"/>
      <point x="67" y="528" type="line"/>
      <point x="77" y="526" type="line" smooth="yes"/>
      <point x="132" y="516"/>
      <point x="171" y="496"/>
      <point x="172" y="468" type="curve" smooth="yes"/>
      <point x="193" y="-17" type="line"/>
      <point x="260" y="-17" type="line"/>
      <point x="350" y="160"/>
      <point x="441" y="337"/>
      <point x="531" y="513" type="curve"/>
      <point x="523" y="518" type="line"/>
      <point x="540" y="-17" type="line"/>
      <point x="606" y="-17" type="line"/>
      <point x="712" y="175"/>
      <point x="818" y="367"/>
      <point x="925" y="559" type="curve"/>
      <point x="925" y="565" type="line"/>
      <point x="866" y="565" type="line"/>
      <point x="770" y="378"/>
      <point x="674" y="192"/>
      <point x="578" y="5" type="curve"/>
      <point x="587" y="-9" type="line"/>
      <point x="563" y="565" type="line"/>
    </contour>
  </outline>
</glyph>
<glyph name="section" format="2">
  <advance width="657"/>
  <unicode hex="00A7"/>
  <outline>
    <contour>
      <point x="221" y="-236" type="curve" smooth="yes"/>
      <point x="352" y="-236"/>
      <point x="457" y="-171"/>
      <point x="457" y="-50" type="curve" smooth="yes"/>
      <point x="457" y="36"/>
      <point x="372" y="93"/>
      <point x="278" y="145" type="curve" smooth="yes"/>
      <point x="186" y="197"/>
      <point x="111" y="226"/>
      <point x="111" y="305" type="curve" smooth="yes"/>
      <point x="111" y="396"/>
      <point x="193" y="418"/>
      <point x="301" y="419" type="curve"/>
      <point x="293" y="445" type="line"/>
      <point x="159" y="447"/>
      <point x="57" y="409"/>
      <point x="57" y="300" type="curve" smooth="yes"/>
      <point x="57" y="209"/>
      <point x="143" y="174"/>
      <point x="242" y="119" type="curve" smooth="yes"/>
      <point x="328" y="71"/>
      <point x="399" y="28"/>
      <point x="399" y="-49" type="curve" smooth="yes"/>
      <point x="399" y="-146"/>
      <point x="333" y="-200"/>
      <point x="225" y="-200" type="curve" smooth="yes"/>
      <point x="144" y="-200"/>
      <point x="81" y="-188"/>
      <point x="30" y="-153" type="curve"/>
      <point x="26" y="-152"/>
      <point x="12" y="-178"/>
      <point x="40" y="-208" type="curve"/>
      <point x="80" y="-46" type="line"/>
      <point x="17" y="-46" type="line"/>
      <point x="-17" y="-178" type="line"/>
      <point x="26" y="-201"/>
      <point x="97" y="-236"/>
    </contour>
    <contour>
      <point x="394" y="49" type="line"/>
      <point x="519" y="51"/>
      <point x="594" y="105"/>
      <point x="594" y="197" type="curve" smooth="yes"/>
      <point x="594" y="277"/>
      <point x="498" y="331"/>
      <point x="407" y="393" type="curve" smooth="yes"/>
      <point x="329" y="445"/>
      <point x="256" y="484"/>
      <point x="256" y="562" type="curve" smooth="yes"/>
      <point x="256" y="625"/>
      <point x="285" y="683"/>
      <point x="425" y="683" type="curve" smooth="yes"/>
      <point x="522" y="683"/>
      <point x="571" y="662"/>
      <point x="604" y="651" type="curve"/>
      <point x="607" y="661"/>
      <point x="605" y="672"/>
      <point x="577" y="678" type="curve"/>
      <point x="542" y="546" type="line"/>
      <point x="605" y="546" type="line"/>
      <point x="641" y="680" type="line"/>
      <point x="613" y="692"/>
      <point x="545" y="720"/>
      <point x="427" y="720" type="curve" smooth="yes"/>
      <point x="258" y="720"/>
      <point x="199" y="641"/>
      <point x="199" y="558" type="curve" smooth="yes"/>
      <point x="199" y="472"/>
      <point x="287" y="419"/>
      <point x="370" y="366" type="curve" smooth="yes"/>
      <point x="459" y="309"/>
      <point x="539" y="260"/>
      <point x="539" y="195" type="curve" smooth="yes"/>
      <point x="539" y="122"/>
      <point x="489" y="74"/>
      <point x="375" y="74" type="curve"/>
    </contour>
  </outline>
</glyph>
<glyph name="Oslash" format="2">
  <advance width="813"/>
  <unicode hex="00D8"/>
  <anchor x="406" y="731" name="top"/>
  <outline>
    <contour>
      <point x="-67" y="-12" type="line"/>
      <point x="-3" y="-12" type="line"/>
      <point x="890" y="722" type="line"/>
      <point x="826" y="722" type="line"/>
    </contour>
    <contour>
      <point x="354" y="-25" type="curve" smooth="yes"/>
      <point x="660" y="-25"/>
      <point x="787" y="254"/>
      <point x="787" y="473" type="curve" smooth="yes"/>
      <point x="787" y="644"/>
      <point x="661" y="735"/>
      <point x="493" y="735" type="curve" smooth="yes"/>
      <point x="188" y="735"/>
      <point x="61" y="456"/>
      <point x="61" y="238" type="curve" smooth="yes"/>
      <point x="61" y="66"/>
      <point x="187" y="-25"/>
    </contour>
    <contour>
      <point x="359" y="16" type="curve" smooth="yes"/>
      <point x="196" y="16"/>
      <point x="116" y="78"/>
      <point x="116" y="242" type="curve" smooth="yes"/>
      <point x="116" y="331"/>
      <point x="133" y="425"/>
      <point x="170" y="506" type="curve" smooth="yes"/>
      <point x="225" y="600"/>
      <point x="327" y="694"/>
      <point x="489" y="694" type="curve" smooth="yes"/>
      <point x="652" y="694"/>
      <point x="732" y="631"/>
      <point x="732" y="468" type="curve" smooth="yes"/>
      <point x="732" y="379"/>
      <point x="715" y="285"/>
      <point x="678" y="204" type="curve" smooth="yes"/>
      <point x="624" y="110"/>
      <point x="521" y="16"/>
    </contour>
  </outline>
</glyph>
<glyph name="hbar" format="2">
  <advance width="686"/>
  <unicode hex="0127"/>
  <outline>
    <contour>
      <point x="468" y="160" type="line" smooth="yes"/>
      <point x="451" y="117"/>
      <point x="439" y="82"/>
      <point x="439" y="51" type="curve" smooth="yes"/>
      <point x="439" y="16"/>
      <point x="469" y="0"/>
      <point x="511" y="0" type="curve" smooth="yes"/>
      <point x="544" y="0"/>
      <point x="576" y="0"/>
      <point x="610" y="0" type="curve"/>
      <point x="618" y="40" type="line"/>
      <point x="589" y="40"/>
      <point x="559" y="40"/>
      <point x="530" y="40" type="curve"/>
      <point x="508" y="40"/>
      <point x="494" y="48"/>
      <point x="494" y="67" type="curve" smooth="yes"/>
      <point x="494" y="80"/>
      <point x="495" y="88"/>
      <point x="510" y="126" type="curve" smooth="yes"/>
      <point x="580" y="379" type="line" smooth="yes"/>
      <point x="594" y="430"/>
      <point x="602" y="464"/>
      <point x="602" y="496" type="curve" smooth="yes"/>
      <point x="602" y="541"/>
      <point x="576" y="575"/>
      <point x="493" y="575" type="curve" smooth="yes"/>
      <point x="387" y="575"/>
      <point x="292" y="483"/>
      <point x="185" y="367" type="curve"/>
      <point x="197" y="345" type="line"/>
      <point x="310" y="465"/>
      <point x="393" y="532"/>
      <point x="478" y="532" type="curve" smooth="yes"/>
      <point x="530" y="532"/>
      <point x="549" y="516"/>
      <point x="549" y="482" type="curve" smooth="yes"/>
      <point x="549" y="457"/>
      <point x="542" y="430"/>
      <point x="530" y="382" type="curve" smooth="yes"/>
    </contour>
    <contour>
      <point x="64" y="0" type="line"/>
      <point x="114" y="0" type="line"/>
      <point x="322" y="780" type="line"/>
      <point x="271" y="780" type="line"/>
    </contour>
    <contour>
      <point x="517" y="670" type="line"/>
      <point x="527" y="705" type="line"/>
      <point x="175" y="705" type="line"/>
      <point x="165" y="670" type="line"/>
    </contour>
  </outline>
</glyph>
<glyph name="itilde" format="2">
  <advance width="350"/>
  <unicode hex="0129"/>
  <outline>
    <contour>
      <point x="281" y="669" type="curve" smooth="yes"/>
      <point x="329" y="669"/>
      <point x="353" y="697"/>
      <point x="395" y="827" type="curve"/>
      <point x="356" y="835" type="line"/>
      <point x="327" y="743"/>
      <point x="315" y="710"/>
      <point x="284" y="710" type="curve" smooth="yes"/>
      <point x="239" y="710"/>
      <point x="264" y="830"/>
      <point x="179" y="830" type="curve" smooth="yes"/>
      <point x="128" y="830"/>
      <point x="99" y="798"/>
      <point x="65" y="677" type="curve"/>
      <point x="104" y="668" type="line"/>
      <point x="130" y="754"/>
      <point x="141" y="788"/>
      <point x="171" y="788" type="curve" smooth="yes"/>
      <point x="222" y="788"/>
      <point x="193" y="669"/>
    </contour>
    <component base="dotlessi"/>
  </outline>
</glyph>
<glyph name="eng" format="2">
  <advance width="653"/>
  <unicode hex="014B"/>
  <outline>
    <contour>
      <point x="390" y="-89" type="line" smooth="yes"/>
      <point x="364" y="-181"/>
      <point x="338" y="-209"/>
      <point x="272" y="-209" type="curve" smooth="yes"/>
      <point x="230" y="-209"/>
      <point x="186" y="-194"/>
      <point x="167" y="-188" type="curve"/>
      <point x="153" y="-227" type="line"/>
      <point x="171" y="-235"/>
      <point x="221" y="-250"/>
      <point x="273" y="-250" type="curve" smooth="yes"/>
      <point x="363" y="-250"/>
      <point x="408" y="-200"/>
      <point x="438" y="-100" type="curve"/>
      <point x="580" y="382" type="line" smooth="yes"/>
      <point x="594" y="432"/>
      <point x="602" y="470"/>
      <point x="602" y="500" type="curve" smooth="yes"/>
      <point x="602" y="544"/>
      <point x="575" y="575"/>
      <point x="493" y="575" type="curve" smooth="yes"/>
      <point x="389" y="575"/>
      <point x="292" y="483"/>
      <point x="185" y="367" type="curve"/>
      <point x="198" y="345" type="line"/>
      <point x="310" y="465"/>
      <point x="393" y="532"/>
      <point x="478" y="532" type="curve" smooth="yes"/>
      <point x="530" y="532"/>
      <point x="549" y="518"/>
      <point x="549" y="486" type="curve" smooth="yes"/>
      <point x="549" y="462"/>
      <point x="543" y="432"/>
      <point x="530" y="385" type="curve" smooth="yes"/>
    </contour>
    <contour>
      <point x="116" y="0" type="line"/>
      <point x="216" y="382" type="line"/>
      <point x="216" y="390" type="line"/>
      <point x="234" y="565" type="line"/>
      <point x="100" y="565" type="line"/>
      <point x="88" y="528" type="line"/>
      <point x="99" y="526" type="line" smooth="yes"/>
      <point x="153" y="516"/>
      <point x="193" y="490"/>
      <point x="186" y="465" type="curve" smooth="yes"/>
      <point x="64" y="0" type="line"/>
    </contour>
  </outline>
</glyph>
<glyph name="iinvertedbreve" format="2">
  <advance width="350"/>
  <unicode hex="020B"/>
  <outline>
    <contour>
      <point x="233" y="824" type="curve" smooth="yes"/>
      <point x="141" y="824"/>
      <point x="97" y="776"/>
      <point x="83" y="675" type="curve"/>
      <point x="129" y="675" type="line"/>
      <point x="150" y="757"/>
      <point x="168" y="777"/>
      <point x="232" y="777" type="curve" smooth="yes"/>
      <point x="312" y="777"/>
      <point x="320" y="749"/>
      <point x="316" y="675" type="curve"/>
      <point x="362" y="675" type="line"/>
      <point x="366" y="695"/>
      <point x="367" y="710"/>
      <point x="367" y="723" type="curve" smooth="yes"/>
      <point x="367" y="787"/>
      <point x="337" y="824"/>
    </contour>
    <component base="dotlessi"/>
  </outline>
</glyph>
<glyph name="ogonek" format="2">
  <advance width="519"/>
  <unicode hex="02DB"/>
  <anchor x="305" y="9" name="_right"/>
  <outline>
    <contour>
      <point x="377" y="35" type="line"/>
      <point x="163" y="-74"/>
      <point x="129" y="-110"/>
      <point x="129" y="-166" type="curve" smooth="yes"/>
      <point x="129" y="-215"/>
      <point x="172" y="-252"/>
      <point x="243" y="-252" type="curve" smooth="yes"/>
      <point x="300" y="-252"/>
      <point x="338" y="-227"/>
      <point x="380" y="-189" type="curve"/>
      <point x="357" y="-163" type="line"/>
      <point x="333" y="-184"/>
      <point x="298" y="-217"/>
      <point x="247" y="-217" type="curve" smooth="yes"/>
      <point x="203" y="-217"/>
      <point x="187" y="-197"/>
      <point x="187" y="-163" type="curve" smooth="yes"/>
      <point x="187" y="-103"/>
      <point x="239" y="-68"/>
      <point x="391" y="11" type="curve"/>
    </contour>
  </outline>
</glyph>
<glyph name="tilde" format="2">
  <advance width="530"/>
  <unicode hex="02DC"/>
  <anchor x="265" y="516" name="_top"/>
  <outline>
    <contour>
      <point x="325" y="669" type="curve" smooth="yes"/>
      <point x="373" y="669"/>
      <point x="399" y="697"/>
      <point x="441" y="827" type="curve"/>
      <point x="403" y="835" type="line"/>
      <point x="374" y="743"/>
      <point x="359" y="710"/>
      <point x="328" y="710" type="curve" smooth="yes"/>
      <point x="279" y="710"/>
      <point x="294" y="830"/>
      <point x="206" y="830" type="curve" smooth="yes"/>
      <point x="155" y="830"/>
      <point x="123" y="798"/>
      <point x="89" y="677" type="curve"/>
      <point x="127" y="668" type="line"/>
      <point x="154" y="754"/>
      <point x="168" y="788"/>
      <point x="198" y="788" type="curve" smooth="yes"/>
      <point x="254" y="788"/>
      <point x="234" y="669"/>
    </contour>
  </outline>
</glyph>
<glyph name="perthousand" format="2">
  <advance width="1219"/>
  <unicode hex="2030"/>
  <outline>
    <contour>
      <point x="214" y="363" type="curve" smooth="yes"/>
      <point x="340" y="363"/>
      <point x="400" y="517"/>
      <point x="400" y="631" type="curve" smooth="yes"/>
      <point x="400" y="707"/>
      <point x="360" y="750"/>
      <point x="280" y="750" type="curve" smooth="yes"/>
      <point x="153" y="750"/>
      <point x="93" y="596"/>
      <point x="93" y="482" type="curve" smooth="yes"/>
      <point x="93" y="406"/>
      <point x="134" y="363"/>
    </contour>
    <contour>
      <point x="215" y="387" type="curve" smooth="yes"/>
      <point x="168" y="387"/>
      <point x="139" y="409"/>
      <point x="139" y="481" type="curve" smooth="yes"/>
      <point x="139" y="544"/>
      <point x="176" y="726"/>
      <point x="279" y="726" type="curve" smooth="yes"/>
      <point x="325" y="726"/>
      <point x="354" y="704"/>
      <point x="354" y="632" type="curve" smooth="yes"/>
      <point x="354" y="569"/>
      <point x="317" y="387"/>
    </contour>
    <contour>
      <point x="574" y="-16" type="curve" smooth="yes"/>
      <point x="494" y="-16"/>
      <point x="453" y="27"/>
      <point x="453" y="103" type="curve" smooth="yes"/>
      <point x="453" y="217"/>
      <point x="514" y="371"/>
      <point x="640" y="371" type="curve" smooth="yes"/>
      <point x="720" y="371"/>
      <point x="761" y="328"/>
      <point x="761" y="252" type="curve" smooth="yes"/>
      <point x="761" y="138"/>
      <point x="701" y="-16"/>
    </contour>
    <contour>
      <point x="575" y="8" type="curve" smooth="yes"/>
      <point x="678" y="8"/>
      <point x="714" y="190"/>
      <point x="714" y="253" type="curve" smooth="yes"/>
      <point x="714" y="325"/>
      <point x="686" y="347"/>
      <point x="639" y="347" type="curve" smooth="yes"/>
      <point x="537" y="347"/>
      <point x="500" y="165"/>
      <point x="500" y="102" type="curve" smooth="yes"/>
      <point x="500" y="30"/>
      <point x="529" y="8"/>
    </contour>
    <contour>
      <point x="946" y="-16" type="curve" smooth="yes"/>
      <point x="866" y="-16"/>
      <point x="826" y="27"/>
      <point x="826" y="103" type="curve" smooth="yes"/>
      <point x="826" y="217"/>
      <point x="886" y="371"/>
      <point x="1012" y="371" type="curve" smooth="yes"/>
      <point x="1092" y="371"/>
      <point x="1133" y="328"/>
      <point x="1133" y="252" type="curve" smooth="yes"/>
      <point x="1133" y="138"/>
      <point x="1073" y="-16"/>
    </contour>
    <contour>
      <point x="947" y="8" type="curve" smooth="yes"/>
      <point x="1050" y="8"/>
      <point x="1086" y="190"/>
      <point x="1086" y="253" type="curve" smooth="yes"/>
      <point x="1086" y="325"/>
      <point x="1058" y="347"/>
      <point x="1011" y="347" type="curve" smooth="yes"/>
      <point x="909" y="347"/>
      <point x="872" y="165"/>
      <point x="872" y="102" type="curve" smooth="yes"/>
      <point x="872" y="30"/>
      <point x="901" y="8"/>
    </contour>
    <component base="fraction" xOffset="339"/>
  </outline>
</glyph>
<glyph name="naira" format="2">
  <advance width="594"/>
  <unicode hex="20A6"/>
  <outline>
    <contour>
      <point x="-44" y="0" type="line"/>
      <point x="148" y="0" type="line"/>
      <point x="160" y="36" type="line"/>
      <point x="145" y="36" type="line" smooth="yes"/>
      <point x="112" y="36"/>
      <point x="91" y="42"/>
      <point x="93" y="49" type="curve" smooth="yes"/>
      <point x="263" y="700" type="line"/>
      <point x="258" y="698" type="line"/>
      <point x="318" y="0" type="line"/>
      <point x="381" y="0" type="line"/>
      <point x="548" y="633" type="line" smooth="yes"/>
      <point x="555" y="662"/>
      <point x="585" y="674"/>
      <point x="620" y="674" type="curve" smooth="yes"/>
      <point x="641" y="674" type="line"/>
      <point x="652" y="710" type="line"/>
      <point x="463" y="710" type="line"/>
      <point x="451" y="674" type="line"/>
      <point x="466" y="674" type="line" smooth="yes"/>
      <point x="499" y="674"/>
      <point x="517" y="668"/>
      <point x="515" y="661" type="curve" smooth="yes"/>
      <point x="350" y="35" type="line"/>
      <point x="358" y="18" type="line"/>
      <point x="300" y="710" type="line"/>
      <point x="145" y="710" type="line"/>
      <point x="133" y="674" type="line"/>
      <point x="154" y="674" type="line" smooth="yes"/>
      <point x="189" y="674"/>
      <point x="214" y="667"/>
      <point x="206" y="638" type="curve" smooth="yes"/>
      <point x="60" y="77" type="line" smooth="yes"/>
      <point x="53" y="48"/>
      <point x="23" y="36"/>
      <point x="-12" y="36" type="curve" smooth="yes"/>
      <point x="-33" y="36" type="line"/>
    </contour>
    <contour>
      <point x="190" y="489" type="line"/>
      <point x="62" y="489" type="line"/>
      <point x="51" y="455" type="line"/>
      <point x="176" y="455" type="line"/>
    </contour>
    <contour>
      <point x="292" y="461" type="line"/>
      <point x="475" y="460" type="line"/>
      <point x="473" y="455" type="line"/>
      <point x="606" y="455" type="line"/>
      <point x="618" y="489" type="line"/>
      <point x="301" y="489" type="line"/>
    </contour>
    <contour>
      <point x="406" y="223" type="line"/>
      <point x="547" y="223" type="line"/>
      <point x="557" y="258" type="line"/>
      <point x="418" y="258" type="line"/>
    </contour>
    <contour>
      <point x="309" y="251" type="line"/>
      <point x="130" y="253" type="line"/>
      <point x="132" y="258" type="line"/>
      <point x="1" y="258" type="line"/>
      <point x="-9" y="223" type="line"/>
      <point x="303" y="223" type="line"/>
    </contour>
  </outline>
</glyph>
<glyph name="dong" format="2">
  <advance width="594"/>
  <unicode hex="20AB"/>
  <outline>
    <contour>
      <point x="191" y="-10" type="curve" smooth="yes"/>
      <point x="264" y="-10"/>
      <point x="326" y="47"/>
      <point x="395" y="131" type="curve"/>
      <point x="399" y="176" type="line"/>
      <point x="336" y="101"/>
      <point x="270" y="30"/>
      <point x="196" y="30" type="curve" smooth="yes"/>
      <point x="134" y="30"/>
      <point x="96" y="80"/>
      <point x="96" y="179" type="curve" smooth="yes"/>
      <point x="96" y="249"/>
      <point x="115" y="336"/>
      <point x="152" y="407" type="curve" smooth="yes"/>
      <point x="191" y="481"/>
      <point x="247" y="538"/>
      <point x="320" y="538" type="curve" smooth="yes"/>
      <point x="412" y="538"/>
      <point x="429" y="461"/>
      <point x="446" y="352" type="curve"/>
      <point x="470" y="384" type="line"/>
      <point x="446" y="517"/>
      <point x="420" y="578"/>
      <point x="323" y="578" type="curve" smooth="yes"/>
      <point x="142" y="578"/>
      <point x="40" y="358"/>
      <point x="40" y="179" type="curve" smooth="yes"/>
      <point x="40" y="60"/>
      <point x="94" y="-10"/>
    </contour>
    <contour>
      <point x="445" y="0" type="curve" smooth="yes"/>
      <point x="469" y="0"/>
      <point x="494" y="0"/>
      <point x="518" y="0" type="curve"/>
      <point x="526" y="40" type="line"/>
      <point x="501" y="40"/>
      <point x="477" y="40"/>
      <point x="452" y="40" type="curve" smooth="yes"/>
      <point x="430" y="40"/>
      <point x="419" y="46"/>
      <point x="419" y="66" type="curve" smooth="yes"/>
      <point x="419" y="80"/>
      <point x="428" y="131"/>
      <point x="458" y="247" type="curve" smooth="yes"/>
      <point x="598" y="780" type="line"/>
      <point x="549" y="780" type="line"/>
      <point x="384" y="152" type="line"/>
      <point x="379" y="141" type="line"/>
      <point x="375" y="98"/>
      <point x="370" y="62"/>
      <point x="370" y="52" type="curve" smooth="yes"/>
      <point x="370" y="16"/>
      <point x="402" y="0"/>
    </contour>
    <contour>
      <point x="-4" y="-171" type="line"/>
      <point x="461" y="-171" type="line"/>
      <point x="472" y="-135" type="line"/>
      <point x="7" y="-135" type="line"/>
    </contour>
    <contour>
      <point x="295" y="670" type="line"/>
      <point x="648" y="670" type="line"/>
      <point x="658" y="705" type="line"/>
      <point x="305" y="705" type="line"/>
    </contour>
  </outline>
</glyph>
<glyph name="product" format="2">
  <advance width="674"/>
  <unicode hex="220F"/>
  <outline>
    <contour>
      <point x="365" y="677" type="line" smooth="yes"/>
      <point x="325" y="677"/>
      <point x="273" y="674"/>
      <point x="271" y="667" type="curve" smooth="yes"/>
      <point x="51" y="-180" type="line" smooth="yes"/>
      <point x="49" y="-187"/>
      <point x="92" y="-190"/>
      <point x="130" y="-190" type="curve" smooth="yes"/>
      <point x="139" y="-190" type="line"/>
      <point x="129" y="-223" type="line"/>
      <point x="-114" y="-223" type="line"/>
      <point x="-104" y="-190" type="line"/>
      <point x="-92" y="-190" type="line" smooth="yes"/>
      <point x="-40" y="-190"/>
      <point x="0" y="-183"/>
      <point x="8" y="-154" type="curve" smooth="yes"/>
      <point x="215" y="641" type="line" smooth="yes"/>
      <point x="222" y="670"/>
      <point x="186" y="677"/>
      <point x="134" y="677" type="curve" smooth="yes"/>
      <point x="122" y="677" type="line"/>
      <point x="132" y="710" type="line"/>
      <point x="740" y="710" type="line"/>
      <point x="729" y="677" type="line"/>
      <point x="718" y="677" type="line" smooth="yes"/>
      <point x="666" y="677"/>
      <point x="626" y="670"/>
      <point x="618" y="641" type="curve" smooth="yes"/>
      <point x="411" y="-154" type="line"/>
      <point x="403" y="-183"/>
      <point x="440" y="-190"/>
      <point x="492" y="-190" type="curve" smooth="yes"/>
      <point x="504" y="-190" type="line"/>
      <point x="494" y="-223" type="line"/>
      <point x="252" y="-223" type="line"/>
      <point x="262" y="-190" type="line"/>
      <point x="272" y="-190" type="line" smooth="yes"/>
      <point x="311" y="-190"/>
      <point x="353" y="-187"/>
      <point x="355" y="-180" type="curve" smooth="yes"/>
      <point x="575" y="667" type="line" smooth="yes"/>
      <point x="578" y="674"/>
      <point x="525" y="677"/>
      <point x="485" y="677" type="curve" smooth="yes"/>
    </contour>
  </outline>
</glyph>
<glyph name="summation" format="2">
  <advance width="591"/>
  <unicode hex="2211"/>
  <outline>
    <contour>
      <point x="-141" y="-223" type="line"/>
      <point x="-131" y="-193" type="line"/>
      <point x="300" y="286" type="line"/>
      <point x="279" y="238" type="line"/>
      <point x="95" y="684" type="line"/>
      <point x="105" y="710" type="line"/>
      <point x="608" y="710" type="line"/>
      <point x="563" y="523" type="line"/>
      <point x="517" y="523" type="line"/>
      <point x="529" y="636" type="line" smooth="yes"/>
      <point x="533" y="672"/>
      <point x="502" y="681"/>
      <point x="410" y="681" type="curve" smooth="yes"/>
      <point x="141" y="681" type="line"/>
      <point x="145" y="710" type="line"/>
      <point x="325" y="267" type="line"/>
      <point x="315" y="233" type="line"/>
      <point x="-97" y="-217" type="line"/>
      <point x="-93" y="-194" type="line"/>
      <point x="218" y="-194" type="line"/>
      <point x="310" y="-194"/>
      <point x="350" y="-185"/>
      <point x="364" y="-149" type="curve" smooth="yes"/>
      <point x="414" y="-11" type="line"/>
      <point x="462" y="-11" type="line"/>
      <point x="406" y="-223" type="line"/>
    </contour>
  </outline>
</glyph>
<glyph name="infinity" format="2">
  <advance width="850"/>
  <unicode hex="221E"/>
  <outline>
    <contour>
      <point x="403" y="336" type="curve" smooth="yes"/>
      <point x="356" y="467"/>
      <point x="324" y="518"/>
      <point x="243" y="518" type="curve" smooth="yes"/>
      <point x="149" y="518"/>
      <point x="95" y="447"/>
      <point x="95" y="340" type="curve" smooth="yes"/>
      <point x="95" y="249"/>
      <point x="145" y="193"/>
      <point x="226" y="193" type="curve" smooth="yes"/>
      <point x="331" y="193"/>
      <point x="363" y="281"/>
      <point x="404" y="351" type="curve"/>
      <point x="436" y="344" type="line"/>
      <point x="392" y="255"/>
      <point x="332" y="150"/>
      <point x="215" y="150" type="curve" smooth="yes"/>
      <point x="111" y="150"/>
      <point x="52" y="216"/>
      <point x="52" y="330" type="curve" smooth="yes"/>
      <point x="52" y="466"/>
      <point x="128" y="561"/>
      <point x="248" y="561" type="curve" smooth="yes"/>
      <point x="363" y="561"/>
      <point x="406" y="490"/>
      <point x="447" y="375" type="curve" smooth="yes"/>
      <point x="494" y="243"/>
      <point x="526" y="193"/>
      <point x="607" y="193" type="curve" smooth="yes"/>
      <point x="700" y="193"/>
      <point x="755" y="264"/>
      <point x="755" y="371" type="curve" smooth="yes"/>
      <point x="755" y="462"/>
      <point x="705" y="518"/>
      <point x="624" y="518" type="curve" smooth="yes"/>
      <point x="519" y="518"/>
      <point x="487" y="429"/>
      <point x="446" y="360" type="curve"/>
      <point x="414" y="366" type="line"/>
      <point x="458" y="456"/>
      <point x="518" y="561"/>
      <point x="635" y="561" type="curve" smooth="yes"/>
      <point x="738" y="561"/>
      <point x="798" y="495"/>
      <point x="798" y="381" type="curve" smooth="yes"/>
      <point x="798" y="245"/>
      <point x="722" y="150"/>
      <point x="601" y="150" type="curve" smooth="yes"/>
      <point x="489" y="150"/>
      <point x="445" y="221"/>
    </contour>
  </outline>
</glyph>
<glyph name="notequal" format="2">
  <advance width="594"/>
  <unicode hex="2260"/>
  <outline>
    <contour>
      <point x="537" y="614" type="line"/>
      <point x="2" y="35" type="line"/>
      <point x="56" y="35" type="line"/>
      <point x="591" y="614" type="line"/>
    </contour>
    <component base="equal"/>
  </outline>
</glyph>
<glyph name="hook" format="2">
  <advance width="530"/>
  <unicode hex="2440"/>
  <anchor x="245" y="517" name="_top"/>
  <outline>
    <contour>
      <point x="110" y="797" type="line"/>
      <point x="136" y="884"/>
      <point x="198" y="921"/>
      <point x="288" y="921" type="curve" smooth="yes"/>
      <point x="391" y="921"/>
      <point x="434" y="880"/>
      <point x="434" y="817" type="curve" smooth="yes"/>
      <point x="434" y="734"/>
      <point x="356" y="706"/>
      <point x="253" y="705" type="curve"/>
      <point x="295" y="725" type="line"/>
      <point x="273" y="646" type="line"/>
      <point x="217" y="646" type="line"/>
      <point x="241" y="738" type="line"/>
      <point x="315" y="741"/>
      <point x="377" y="744"/>
      <point x="377" y="817" type="curve" smooth="yes"/>
      <point x="377" y="862"/>
      <point x="353" y="884"/>
      <point x="288" y="884" type="curve" smooth="yes"/>
      <point x="228" y="884"/>
      <point x="191" y="861"/>
      <point x="169" y="797" type="curve"/>
    </contour>
  </outline>
</glyph>
<glyph name="one.den" format="2">
  <advance width="512"/>
  <unicode hex="E403"/>
  <outline>
    <contour>
      <point x="248" y="57" type="curve" smooth="yes"/>
      <point x="342" y="415" type="line"/>
      <point x="315" y="415" type="line"/>
      <point x="279" y="368"/>
      <point x="242" y="351"/>
      <point x="147" y="350" type="curve"/>
      <point x="137" y="311" type="line"/>
      <point x="218" y="310"/>
      <point x="265" y="335"/>
      <point x="291" y="377" type="curve"/>
      <point x="296" y="384"/>
      <point x="296" y="381"/>
      <point x="282" y="377" type="curve"/>
      <point x="199" y="57" type="line" smooth="yes"/>
      <point x="193" y="35"/>
      <point x="160" y="31"/>
      <point x="114" y="31" type="curve" smooth="yes"/>
      <point x="75" y="31" type="line"/>
      <point x="67" y="0" type="line"/>
      <point x="345" y="0" type="line"/>
      <point x="353" y="31" type="line"/>
      <point x="323" y="31" type="line" smooth="yes"/>
      <point x="272" y="31"/>
      <point x="242" y="35"/>
    </contour>
  </outline>
</glyph>
<glyph name="two.den" format="2">
  <advance width="512"/>
  <unicode hex="E404"/>
  <outline>
    <contour>
      <point x="259" y="33" type="line" smooth="yes"/>
      <point x="318" y="33"/>
      <point x="341" y="37"/>
      <point x="351" y="61" type="curve" smooth="yes"/>
      <point x="370" y="113" type="line"/>
      <point x="401" y="113" type="line"/>
      <point x="371" y="0" type="line"/>
      <point x="21" y="0" type="line"/>
      <point x="30" y="31" type="line"/>
      <point x="222" y="131"/>
      <point x="363" y="191"/>
      <point x="363" y="307" type="curve" smooth="yes"/>
      <point x="363" y="362"/>
      <point x="341" y="394"/>
      <point x="272" y="394" type="curve" smooth="yes"/>
      <point x="224" y="394"/>
      <point x="174" y="381"/>
      <point x="156" y="368" type="curve"/>
      <point x="155" y="381"/>
      <point x="177" y="387"/>
      <point x="187" y="389" type="curve"/>
      <point x="160" y="282" type="line"/>
      <point x="103" y="282" type="line"/>
      <point x="131" y="386" type="line"/>
      <point x="153" y="397"/>
      <point x="210" y="420"/>
      <point x="272" y="420" type="curve" smooth="yes"/>
      <point x="371" y="420"/>
      <point x="412" y="370"/>
      <point x="412" y="307" type="curve" smooth="yes"/>
      <point x="412" y="188"/>
      <point x="243" y="108"/>
      <point x="61" y="20" type="curve"/>
      <point x="53" y="17"/>
      <point x="59" y="30"/>
      <point x="67" y="33" type="curve"/>
    </contour>
  </outline>
</glyph>
<glyph name="f_f_i" format="2">
  <advance width="1076"/>
  <unicode hex="FB03"/>
  <outline>
    <contour>
      <point x="81" y="565" type="line"/>
      <point x="73" y="526" type="line"/>
      <point x="444" y="526" type="line"/>
      <point x="452" y="565" type="line"/>
    </contour>
    <contour>
      <point x="380" y="733" type="curve" smooth="yes"/>
      <point x="413" y="733"/>
      <point x="444" y="727"/>
      <point x="471" y="722" type="curve"/>
      <point x="480" y="764" type="line"/>
      <point x="459" y="769"/>
      <point x="425" y="775"/>
      <point x="384" y="775" type="curve" smooth="yes"/>
      <point x="291" y="775"/>
      <point x="240" y="740"/>
      <point x="222" y="650" type="curve" smooth="yes"/>
      <point x="56" y="-223" type="line"/>
      <point x="99" y="-223" type="line"/>
      <point x="276" y="645" type="line" smooth="yes"/>
      <point x="290" y="716"/>
      <point x="318" y="733"/>
    </contour>
    <contour>
      <point x="981" y="699" type="curve" smooth="yes"/>
      <point x="1013" y="699"/>
      <point x="1039" y="712"/>
      <point x="1039" y="751" type="curve" smooth="yes"/>
      <point x="1039" y="790"/>
      <point x="1013" y="804"/>
      <point x="981" y="804" type="curve" smooth="yes"/>
      <point x="947" y="804"/>
      <point x="923" y="790"/>
      <point x="923" y="751" type="curve" smooth="yes"/>
      <point x="923" y="712"/>
      <point x="947" y="699"/>
    </contour>
    <contour>
      <point x="436" y="565" type="line"/>
      <point x="428" y="526" type="line"/>
      <point x="788" y="526" type="line" smooth="yes"/>
      <point x="862" y="526"/>
      <point x="926" y="518"/>
      <point x="919" y="483" type="curve" smooth="yes"/>
      <point x="843" y="161" type="line" smooth="yes"/>
      <point x="829" y="119"/>
      <point x="819" y="83"/>
      <point x="819" y="54" type="curve" smooth="yes"/>
      <point x="819" y="19"/>
      <point x="847" y="0"/>
      <point x="889" y="0" type="curve" smooth="yes"/>
      <point x="921" y="0"/>
      <point x="953" y="0"/>
      <point x="986" y="0" type="curve"/>
      <point x="994" y="40" type="line"/>
      <point x="964" y="40"/>
      <point x="935" y="40"/>
      <point x="905" y="40" type="curve" smooth="yes"/>
      <point x="882" y="40"/>
      <point x="869" y="48"/>
      <point x="869" y="67" type="curve" smooth="yes"/>
      <point x="869" y="80"/>
      <point x="870" y="89"/>
      <point x="884" y="127" type="curve" smooth="yes"/>
      <point x="991" y="565" type="line"/>
    </contour>
    <contour>
      <point x="729" y="748" type="curve" smooth="yes"/>
      <point x="760" y="748"/>
      <point x="779" y="745"/>
      <point x="807" y="739" type="curve"/>
      <point x="817" y="781" type="line"/>
      <point x="792" y="787"/>
      <point x="772" y="790"/>
      <point x="733" y="790" type="curve" smooth="yes"/>
      <point x="645" y="790"/>
      <point x="598" y="757"/>
      <point x="580" y="665" type="curve" smooth="yes"/>
      <point x="412" y="-223" type="line"/>
      <point x="454" y="-223" type="line"/>
      <point x="634" y="660" type="line" smooth="yes"/>
      <point x="649" y="730"/>
      <point x="675" y="748"/>
    </contour>
  </outline>
</glyph>
<glyph name="E.alt" format="2">
  <advance width="703"/>
  <outline>
    <contour>
      <point x="629" y="221" type="line"/>
      <point x="581" y="221" type="line"/>
      <point x="530" y="84" type="line" smooth="yes"/>
      <point x="517" y="48"/>
      <point x="476" y="39"/>
      <point x="385" y="39" type="curve" smooth="yes"/>
      <point x="138" y="39" type="line"/>
      <point x="304" y="671" type="line"/>
      <point x="515" y="671" type="line" smooth="yes"/>
      <point x="606" y="671"/>
      <point x="638" y="662"/>
      <point x="633" y="626" type="curve" smooth="yes"/>
      <point x="621" y="514" type="line"/>
      <point x="667" y="514" type="line"/>
      <point x="712" y="710" type="line"/>
      <point x="164" y="710" type="line"/>
      <point x="152" y="666" type="line"/>
      <point x="163" y="666" type="line" smooth="yes"/>
      <point x="215" y="666"/>
      <point x="251" y="659"/>
      <point x="244" y="630" type="curve" smooth="yes"/>
      <point x="99" y="80" type="line" smooth="yes"/>
      <point x="91" y="51"/>
      <point x="51" y="44"/>
      <point x="-1" y="44" type="curve" smooth="yes"/>
      <point x="-13" y="44" type="line"/>
      <point x="-25" y="0" type="line"/>
      <point x="572" y="0" type="line"/>
    </contour>
    <contour>
      <point x="205" y="382" type="line"/>
      <point x="195" y="343" type="line"/>
      <point x="397" y="343" type="line" smooth="yes"/>
      <point x="428" y="343"/>
      <point x="433" y="320"/>
      <point x="425" y="286" type="curve" smooth="yes"/>
      <point x="420" y="264" type="line"/>
      <point x="466" y="264" type="line"/>
      <point x="519" y="462" type="line"/>
      <point x="472" y="462" type="line"/>
      <point x="467" y="443" type="line" smooth="yes"/>
      <point x="457" y="408"/>
      <point x="443" y="382"/>
      <point x="412" y="382" type="curve" smooth="yes"/>
    </contour>
  </outline>
</glyph>
<glyph name="breve_acute.uc" format="2">
  <advance width="526"/>
  <anchor x="258" y="744" name="_top"/>
  <outline>
    <contour>
      <point x="326" y="1079" type="curve" smooth="yes"/>
      <point x="230" y="993" type="line"/>
      <point x="224" y="972" type="line"/>
      <point x="248" y="972" type="line"/>
      <point x="380" y="1042" type="line" smooth="yes"/>
      <point x="419" y="1062"/>
      <point x="443" y="1076"/>
      <point x="443" y="1100" type="curve" smooth="yes"/>
      <point x="443" y="1117"/>
      <point x="430" y="1133"/>
      <point x="405" y="1133" type="curve" smooth="yes"/>
      <point x="374" y="1133"/>
      <point x="357" y="1110"/>
    </contour>
    <component base="breve.uc"/>
  </outline>
</glyph>
<glyph name="breve_grave.uc" format="2">
  <advance width="526"/>
  <anchor x="255" y="744" name="_top"/>
  <outline>
    <contour>
      <point x="280" y="1067" type="curve" smooth="yes"/>
      <point x="351" y="993" type="line"/>
      <point x="344" y="972" type="line"/>
      <point x="324" y="972" type="line"/>
      <point x="202" y="1045" type="line" smooth="yes"/>
      <point x="177" y="1059"/>
      <point x="152" y="1074"/>
      <point x="152" y="1096" type="curve" smooth="yes"/>
      <point x="152" y="1117"/>
      <point x="172" y="1133"/>
      <point x="196" y="1133" type="curve" smooth="yes"/>
      <point x="226" y="1133"/>
      <point x="248" y="1105"/>
    </contour>
    <component base="breve.uc"/>
  </outline>
</glyph>
<glyph name="breve_hook" format="2">
  <advance width="528"/>
  <anchor x="260" y="525" name="_top"/>
  <outline>
    <contour>
      <point x="158" y="1004" type="line"/>
      <point x="179" y="1072"/>
      <point x="234" y="1103"/>
      <point x="317" y="1103" type="curve" smooth="yes"/>
      <point x="414" y="1103"/>
      <point x="446" y="1062"/>
      <point x="446" y="1016" type="curve" smooth="yes"/>
      <point x="446" y="941"/>
      <point x="374" y="916"/>
      <point x="282" y="917" type="curve"/>
      <point x="316" y="947" type="line"/>
      <point x="297" y="864" type="line"/>
      <point x="252" y="864" type="line"/>
      <point x="273" y="949" type="line"/>
      <point x="338" y="952"/>
      <point x="391" y="953"/>
      <point x="391" y="1017" type="curve" smooth="yes"/>
      <point x="391" y="1052"/>
      <point x="370" y="1067"/>
      <point x="315" y="1067" type="curve" smooth="yes"/>
      <point x="257" y="1067"/>
      <point x="232" y="1050"/>
      <point x="216" y="1004" type="curve"/>
    </contour>
    <contour>
      <point x="130" y="824" type="curve"/>
      <point x="164" y="824" type="line"/>
      <point x="161" y="751"/>
      <point x="170" y="725"/>
      <point x="271" y="725" type="curve" smooth="yes"/>
      <point x="354" y="725"/>
      <point x="374" y="745"/>
      <point x="398" y="824" type="curve"/>
      <point x="431" y="824" type="line"/>
      <point x="416" y="723"/>
      <point x="374" y="675"/>
      <point x="271" y="675" type="curve" smooth="yes"/>
      <point x="154" y="675"/>
      <point x="125" y="715"/>
      <point x="125" y="778" type="curve" smooth="yes"/>
      <point x="125" y="790"/>
      <point x="126" y="805"/>
    </contour>
  </outline>
</glyph>
<glyph name="cent.alt" format="2">
  <advance width="594"/>
  <outline>
    <contour>
      <point x="367" y="576" type="curve" smooth="yes"/>
      <point x="153" y="576"/>
      <point x="41" y="397"/>
      <point x="41" y="213" type="curve" smooth="yes"/>
      <point x="41" y="85"/>
      <point x="129" y="-13"/>
      <point x="277" y="-13" type="curve" smooth="yes"/>
      <point x="376" y="-13"/>
      <point x="456" y="39"/>
      <point x="508" y="125" type="curve"/>
      <point x="471" y="147" type="line"/>
      <point x="427" y="78"/>
      <point x="369" y="25"/>
      <point x="281" y="25" type="curve" smooth="yes"/>
      <point x="156" y="25"/>
      <point x="91" y="105"/>
      <point x="91" y="216" type="curve" smooth="yes"/>
      <point x="91" y="361"/>
      <point x="166" y="538"/>
      <point x="367" y="538" type="curve" smooth="yes"/>
      <point x="457" y="538"/>
      <point x="513" y="507"/>
      <point x="537" y="489" type="curve"/>
      <point x="539" y="501"/>
      <point x="534" y="535"/>
      <point x="508" y="548" type="curve"/>
      <point x="470" y="408" type="line"/>
      <point x="528" y="408" type="line"/>
      <point x="562" y="528" type="line"/>
      <point x="539" y="542"/>
      <point x="478" y="576"/>
    </contour>
    <contour>
      <point x="210" y="11" type="line"/>
      <point x="164" y="-166" type="line"/>
      <point x="205" y="-166" type="line"/>
      <point x="252" y="12" type="line"/>
    </contour>
    <contour>
      <point x="393" y="703" type="line"/>
      <point x="354" y="554" type="line"/>
      <point x="395" y="555" type="line"/>
      <point x="434" y="703" type="line"/>
    </contour>
  </outline>
</glyph>
<glyph name="circumflex_hook" format="2">
  <advance width="526"/>
  <anchor x="259" y="559" name="_top"/>
  <outline>
    <contour>
      <point x="363" y="936" type="line"/>
      <point x="384" y="1005"/>
      <point x="439" y="1043"/>
      <point x="521" y="1043" type="curve" smooth="yes"/>
      <point x="620" y="1043"/>
      <point x="651" y="994"/>
      <point x="651" y="950" type="curve" smooth="yes"/>
      <point x="651" y="875"/>
      <point x="579" y="845"/>
      <point x="480" y="847" type="curve"/>
      <point x="516" y="872" type="line"/>
      <point x="494" y="788" type="line"/>
      <point x="448" y="788" type="line"/>
      <point x="471" y="879" type="line"/>
      <point x="542" y="881"/>
      <point x="596" y="888"/>
      <point x="596" y="952" type="curve" smooth="yes"/>
      <point x="596" y="985"/>
      <point x="574" y="1006"/>
      <point x="519" y="1006" type="curve" smooth="yes"/>
      <point x="461" y="1006"/>
      <point x="437" y="982"/>
      <point x="421" y="936" type="curve"/>
    </contour>
    <component base="circumflex"/>
  </outline>
</glyph>
<glyph name="circumflex_hook.uc" format="2">
  <advance width="526"/>
  <anchor x="259" y="694" name="_top"/>
  <outline>
    <contour>
      <point x="386" y="1046" type="line"/>
      <point x="408" y="1117"/>
      <point x="461" y="1150"/>
      <point x="546" y="1150" type="curve" smooth="yes"/>
      <point x="644" y="1150"/>
      <point x="676" y="1104"/>
      <point x="676" y="1057" type="curve" smooth="yes"/>
      <point x="676" y="988"/>
      <point x="607" y="959"/>
      <point x="510" y="956" type="curve"/>
      <point x="546" y="984" type="line"/>
      <point x="524" y="898" type="line"/>
      <point x="478" y="898" type="line"/>
      <point x="501" y="990" type="line"/>
      <point x="570" y="993"/>
      <point x="621" y="1000"/>
      <point x="621" y="1058" type="curve" smooth="yes"/>
      <point x="621" y="1093"/>
      <point x="599" y="1111"/>
      <point x="544" y="1111" type="curve" smooth="yes"/>
      <point x="483" y="1111"/>
      <point x="461" y="1092"/>
      <point x="444" y="1046" type="curve"/>
    </contour>
    <component base="circumflex.uc"/>
  </outline>
</glyph>
<glyph name="circumflex_tilde.uc" format="2">
  <advance width="530"/>
  <anchor x="259" y="694" name="_top"/>
  <outline>
    <contour>
      <point x="371" y="1002" type="curve" smooth="yes"/>
      <point x="419" y="1002"/>
      <point x="454" y="1038"/>
      <point x="492" y="1138" type="curve"/>
      <point x="451" y="1152" type="line"/>
      <point x="428" y="1095"/>
      <point x="407" y="1050"/>
      <point x="375" y="1050" type="curve" smooth="yes"/>
      <point x="330" y="1050"/>
      <point x="326" y="1147"/>
      <point x="246" y="1147" type="curve" smooth="yes"/>
      <point x="189" y="1147"/>
      <point x="162" y="1112"/>
      <point x="125" y="1015" type="curve"/>
      <point x="166" y="1001" type="line"/>
      <point x="191" y="1067"/>
      <point x="210" y="1098"/>
      <point x="238" y="1098" type="curve" smooth="yes"/>
      <point x="287" y="1098"/>
      <point x="286" y="1002"/>
    </contour>
    <contour>
      <point x="328" y="946" type="line"/>
      <point x="428" y="803" type="line"/>
      <point x="422" y="782" type="line"/>
      <point x="400" y="782" type="line"/>
      <point x="270" y="902" type="line"/>
      <point x="308" y="909" type="line"/>
      <point x="115" y="782" type="line"/>
      <point x="87" y="782" type="line"/>
      <point x="93" y="803" type="line"/>
      <point x="262" y="946" type="line"/>
    </contour>
  </outline>
</glyph>
<glyph name="f.alt" format="2">
  <advance width="418"/>
  <outline>
    <contour>
      <point x="81" y="565" type="line"/>
      <point x="73" y="526" type="line"/>
      <point x="430" y="526" type="line"/>
      <point x="438" y="565" type="line"/>
    </contour>
    <contour>
      <point x="397" y="790" type="curve" smooth="yes"/>
      <point x="291" y="790"/>
      <point x="241" y="739"/>
      <point x="225" y="665" type="curve" smooth="yes"/>
      <point x="56" y="-223" type="line"/>
      <point x="99" y="-223" type="line"/>
      <point x="279" y="660" type="line" smooth="yes"/>
      <point x="292" y="722"/>
      <point x="321" y="757"/>
      <point x="397" y="757" type="curve" smooth="yes"/>
      <point x="442" y="757"/>
      <point x="482" y="746"/>
      <point x="511" y="734" type="curve"/>
      <point x="505" y="753"/>
      <point x="495" y="764"/>
      <point x="483" y="776" type="curve"/>
      <point x="454" y="664" type="line"/>
      <point x="503" y="664" type="line"/>
      <point x="532" y="766" type="line"/>
      <point x="510" y="775"/>
      <point x="455" y="790"/>
    </contour>
  </outline>
</glyph>
<glyph name="f_f.short" format="2">
  <advance width="743"/>
  <outline>
    <contour>
      <point x="436" y="565" type="line"/>
      <point x="428" y="526" type="line"/>
      <point x="781" y="526" type="line"/>
      <point x="788" y="565" type="line"/>
    </contour>
    <contour>
      <point x="454" y="-223" type="line"/>
      <point x="634" y="660" type="line" smooth="yes"/>
      <point x="649" y="730"/>
      <point x="682" y="748"/>
      <point x="741" y="748" type="curve" smooth="yes"/>
      <point x="769" y="748"/>
      <point x="793" y="746"/>
      <point x="818" y="741" type="curve"/>
      <point x="828" y="783" type="line"/>
      <point x="805" y="788"/>
      <point x="781" y="790"/>
      <point x="745" y="790" type="curve" smooth="yes"/>
      <point x="652" y="790"/>
      <point x="598" y="757"/>
      <point x="580" y="665" type="curve" smooth="yes"/>
      <point x="412" y="-223" type="line"/>
    </contour>
    <contour>
      <point x="81" y="565" type="line"/>
      <point x="73" y="526" type="line"/>
      <point x="434" y="526" type="line"/>
      <point x="441" y="565" type="line"/>
    </contour>
    <contour>
      <point x="99" y="-223" type="line"/>
      <point x="276" y="645" type="line" smooth="yes"/>
      <point x="290" y="716"/>
      <point x="318" y="733"/>
      <point x="380" y="733" type="curve" smooth="yes"/>
      <point x="413" y="733"/>
      <point x="444" y="727"/>
      <point x="471" y="722" type="curve"/>
      <point x="480" y="764" type="line"/>
      <point x="459" y="769"/>
      <point x="425" y="775"/>
      <point x="384" y="775" type="curve" smooth="yes"/>
      <point x="291" y="775"/>
      <point x="240" y="740"/>
      <point x="222" y="650" type="curve" smooth="yes"/>
      <point x="56" y="-223" type="line"/>
    </contour>
  </outline>
</glyph>
<glyph name="f_f_b" format="2">
  <advance width="1419"/>
  <outline>
    <contour>
      <point x="81" y="565" type="line"/>
      <point x="73" y="526" type="line"/>
      <point x="462" y="526" type="line"/>
      <point x="469" y="565" type="line"/>
    </contour>
    <contour>
      <point x="436" y="565" type="line"/>
      <point x="428" y="526" type="line"/>
      <point x="772" y="526" type="line"/>
      <point x="780" y="565" type="line"/>
    </contour>
    <contour>
      <point x="1056" y="-12" type="curve" smooth="yes"/>
      <point x="1280" y="-12"/>
      <point x="1373" y="212"/>
      <point x="1373" y="382" type="curve" smooth="yes"/>
      <point x="1373" y="509"/>
      <point x="1311" y="576"/>
      <point x="1195" y="576" type="curve" smooth="yes"/>
      <point x="1102" y="576"/>
      <point x="1024" y="519"/>
      <point x="940" y="435" type="curve"/>
      <point x="934" y="391" type="line"/>
      <point x="1013" y="465"/>
      <point x="1096" y="536"/>
      <point x="1194" y="536" type="curve" smooth="yes"/>
      <point x="1278" y="536"/>
      <point x="1317" y="479"/>
      <point x="1317" y="382" type="curve" smooth="yes"/>
      <point x="1317" y="246"/>
      <point x="1258" y="28"/>
      <point x="1058" y="28" type="curve" smooth="yes"/>
      <point x="943" y="28"/>
      <point x="879" y="82"/>
      <point x="852" y="104" type="curve"/>
      <point x="830" y="133"/>
      <point x="847" y="91"/>
      <point x="866" y="93" type="curve"/>
      <point x="1048" y="780" type="line"/>
      <point x="856" y="780" type="line"/>
      <point x="987" y="745" type="line"/>
      <point x="812" y="75" type="line"/>
      <point x="863" y="36"/>
      <point x="941" y="-12"/>
    </contour>
    <contour>
      <point x="795" y="754" type="curve" smooth="yes"/>
      <point x="864" y="754"/>
      <point x="960" y="734"/>
      <point x="999" y="721" type="curve"/>
      <point x="1008" y="753" type="line"/>
      <point x="970" y="765"/>
      <point x="885" y="790"/>
      <point x="798" y="790" type="curve" smooth="yes"/>
      <point x="660" y="790"/>
      <point x="596" y="745"/>
      <point x="580" y="665" type="curve" smooth="yes"/>
      <point x="412" y="-223" type="line"/>
      <point x="454" y="-223" type="line"/>
      <point x="634" y="660" type="line" smooth="yes"/>
      <point x="646" y="721"/>
      <point x="686" y="754"/>
    </contour>
    <contour>
      <point x="380" y="733" type="curve" smooth="yes"/>
      <point x="413" y="733"/>
      <point x="444" y="727"/>
      <point x="471" y="722" type="curve"/>
      <point x="480" y="764" type="line"/>
      <point x="459" y="769"/>
      <point x="425" y="775"/>
      <point x="384" y="775" type="curve" smooth="yes"/>
      <point x="291" y="775"/>
      <point x="240" y="740"/>
      <point x="222" y="650" type="curve" smooth="yes"/>
      <point x="56" y="-223" type="line"/>
      <point x="99" y="-223" type="line"/>
      <point x="276" y="645" type="line" smooth="yes"/>
      <point x="290" y="716"/>
      <point x="318" y="733"/>
    </contour>
  </outline>
</glyph>
<glyph name="f_f_i.alt" format="2">
  <advance width="1076"/>
  <outline>
    <contour>
      <point x="81" y="565" type="line"/>
      <point x="73" y="526" type="line"/>
      <point x="456" y="526" type="line"/>
      <point x="464" y="565" type="line"/>
    </contour>
    <contour>
      <point x="812" y="757" type="curve" smooth="yes"/>
      <point x="875" y="757"/>
      <point x="938" y="743"/>
      <point x="982" y="728" type="curve"/>
      <point x="978" y="753"/>
      <point x="969" y="768"/>
      <point x="955" y="777" type="curve"/>
      <point x="927" y="665" type="line"/>
      <point x="975" y="665" type="line"/>
      <point x="1002" y="760" type="line"/>
      <point x="972" y="772"/>
      <point x="894" y="790"/>
      <point x="814" y="790" type="curve" smooth="yes"/>
      <point x="658" y="790"/>
      <point x="595" y="735"/>
      <point x="578" y="652" type="curve" smooth="yes"/>
      <point x="412" y="-223" type="line"/>
      <point x="454" y="-223" type="line"/>
      <point x="632" y="647" type="line" smooth="yes"/>
      <point x="646" y="718"/>
      <point x="683" y="757"/>
    </contour>
    <contour>
      <point x="436" y="565" type="line"/>
      <point x="428" y="526" type="line"/>
      <point x="788" y="526" type="line" smooth="yes"/>
      <point x="862" y="526"/>
      <point x="926" y="518"/>
      <point x="919" y="483" type="curve" smooth="yes"/>
      <point x="843" y="161" type="line" smooth="yes"/>
      <point x="829" y="119"/>
      <point x="819" y="83"/>
      <point x="819" y="54" type="curve" smooth="yes"/>
      <point x="819" y="19"/>
      <point x="847" y="0"/>
      <point x="889" y="0" type="curve" smooth="yes"/>
      <point x="921" y="0"/>
      <point x="953" y="0"/>
      <point x="986" y="0" type="curve"/>
      <point x="994" y="40" type="line"/>
      <point x="964" y="40"/>
      <point x="935" y="40"/>
      <point x="905" y="40" type="curve" smooth="yes"/>
      <point x="882" y="40"/>
      <point x="869" y="48"/>
      <point x="869" y="67" type="curve" smooth="yes"/>
      <point x="869" y="80"/>
      <point x="870" y="89"/>
      <point x="884" y="127" type="curve" smooth="yes"/>
      <point x="991" y="565" type="line"/>
    </contour>
    <contour>
      <point x="447" y="742" type="curve" smooth="yes"/>
      <point x="541" y="742"/>
      <point x="602" y="718"/>
      <point x="633" y="702" type="curve"/>
      <point x="626" y="717"/>
      <point x="613" y="729"/>
      <point x="596" y="749" type="curve"/>
      <point x="577" y="645" type="line"/>
      <point x="627" y="643" type="line"/>
      <point x="651" y="732" type="line"/>
      <point x="631" y="742"/>
      <point x="550" y="775"/>
      <point x="449" y="775" type="curve" smooth="yes"/>
      <point x="301" y="775"/>
      <point x="237" y="725"/>
      <point x="221" y="641" type="curve" smooth="yes"/>
      <point x="56" y="-223" type="line"/>
      <point x="99" y="-223" type="line"/>
      <point x="274" y="638" type="line" smooth="yes"/>
      <point x="290" y="712"/>
      <point x="329" y="742"/>
    </contour>
  </outline>
</glyph>
<glyph name="f_j" format="2">
  <advance width="703"/>
  <outline>
    <contour>
      <point x="622" y="699" type="curve" smooth="yes"/>
      <point x="654" y="699"/>
      <point x="680" y="712"/>
      <point x="680" y="751" type="curve" smooth="yes"/>
      <point x="680" y="790"/>
      <point x="654" y="804"/>
      <point x="622" y="804" type="curve" smooth="yes"/>
      <point x="588" y="804"/>
      <point x="564" y="790"/>
      <point x="564" y="751" type="curve" smooth="yes"/>
      <point x="564" y="712"/>
      <point x="588" y="699"/>
    </contour>
    <contour>
      <point x="373" y="748" type="curve" smooth="yes"/>
      <point x="404" y="748"/>
      <point x="424" y="745"/>
      <point x="452" y="739" type="curve"/>
      <point x="462" y="781" type="line"/>
      <point x="436" y="787"/>
      <point x="417" y="790"/>
      <point x="377" y="790" type="curve" smooth="yes"/>
      <point x="290" y="790"/>
      <point x="243" y="757"/>
      <point x="225" y="665" type="curve" smooth="yes"/>
      <point x="56" y="-223" type="line"/>
      <point x="99" y="-223" type="line"/>
      <point x="279" y="660" type="line" smooth="yes"/>
      <point x="294" y="730"/>
      <point x="320" y="748"/>
    </contour>
    <contour>
      <point x="434" y="-89" type="line" smooth="yes"/>
      <point x="414" y="-184"/>
      <point x="385" y="-209"/>
      <point x="326" y="-209" type="curve" smooth="yes"/>
      <point x="290" y="-209"/>
      <point x="257" y="-198"/>
      <point x="237" y="-192" type="curve"/>
      <point x="224" y="-231" type="line"/>
      <point x="242" y="-239"/>
      <point x="281" y="-250"/>
      <point x="326" y="-250" type="curve" smooth="yes"/>
      <point x="409" y="-250"/>
      <point x="457" y="-211"/>
      <point x="482" y="-100" type="curve" smooth="yes"/>
      <point x="628" y="565" type="line"/>
      <point x="81" y="565" type="line"/>
      <point x="73" y="526" type="line"/>
      <point x="429" y="526" type="line" smooth="yes"/>
      <point x="503" y="526"/>
      <point x="568" y="518"/>
      <point x="560" y="483" type="curve" smooth="yes"/>
    </contour>
  </outline>
</glyph>
<glyph name="f_l" format="2">
  <advance width="718"/>
  <outline>
    <contour>
      <point x="81" y="565" type="line"/>
      <point x="73" y="526" type="line"/>
      <point x="417" y="526" type="line"/>
      <point x="425" y="565" type="line"/>
    </contour>
    <contour>
      <point x="527" y="127" type="curve" smooth="yes"/>
      <point x="689" y="780" type="line"/>
      <point x="521" y="780" type="line"/>
      <point x="628" y="741" type="line"/>
      <point x="486" y="161" type="line" smooth="yes"/>
      <point x="472" y="119"/>
      <point x="463" y="83"/>
      <point x="463" y="54" type="curve" smooth="yes"/>
      <point x="463" y="19"/>
      <point x="491" y="0"/>
      <point x="533" y="0" type="curve"/>
      <point x="565" y="0"/>
      <point x="597" y="0"/>
      <point x="629" y="0" type="curve"/>
      <point x="638" y="40" type="line"/>
      <point x="607" y="40"/>
      <point x="578" y="40"/>
      <point x="548" y="40" type="curve"/>
      <point x="526" y="40"/>
      <point x="513" y="48"/>
      <point x="513" y="67" type="curve" smooth="yes"/>
      <point x="513" y="80"/>
      <point x="514" y="89"/>
    </contour>
    <contour>
      <point x="439" y="754" type="curve" smooth="yes"/>
      <point x="509" y="754"/>
      <point x="604" y="734"/>
      <point x="644" y="721" type="curve"/>
      <point x="653" y="753" type="line"/>
      <point x="615" y="765"/>
      <point x="530" y="790"/>
      <point x="443" y="790" type="curve" smooth="yes"/>
      <point x="305" y="790"/>
      <point x="241" y="745"/>
      <point x="225" y="665" type="curve" smooth="yes"/>
      <point x="56" y="-223" type="line"/>
      <point x="99" y="-223" type="line"/>
      <point x="279" y="660" type="line" smooth="yes"/>
      <point x="291" y="721"/>
      <point x="331" y="754"/>
    </contour>
  </outline>
</glyph>
<glyph name="five.midprop" format="2">
  <advance width="590"/>
  <outline>
    <contour>
      <point x="-14" y="104" type="curve"/>
      <point x="35" y="119" type="line"/>
      <point x="66" y="45"/>
      <point x="123" y="-8"/>
      <point x="245" y="-8" type="curve" smooth="yes"/>
      <point x="391" y="-8"/>
      <point x="458" y="125"/>
      <point x="458" y="249" type="curve" smooth="yes"/>
      <point x="458" y="350"/>
      <point x="393" y="397"/>
      <point x="319" y="397" type="curve" smooth="yes"/>
      <point x="230" y="397"/>
      <point x="192" y="354"/>
      <point x="146" y="303" type="curve"/>
      <point x="94" y="303" type="line"/>
      <point x="192" y="675" type="line"/>
      <point x="568" y="675" type="line"/>
      <point x="541" y="631" type="line"/>
      <point x="206" y="631" type="line"/>
      <point x="226" y="655" type="line"/>
      <point x="138" y="318" type="line"/>
      <point x="125" y="313" type="line"/>
      <point x="180" y="384"/>
      <point x="242" y="438"/>
      <point x="325" y="438" type="curve" smooth="yes"/>
      <point x="446" y="438"/>
      <point x="513" y="361"/>
      <point x="513" y="251" type="curve" smooth="yes"/>
      <point x="513" y="88"/>
      <point x="409" y="-48"/>
      <point x="241" y="-48" type="curve" smooth="yes"/>
      <point x="84" y="-48"/>
      <point x="16" y="29"/>
    </contour>
  </outline>
</glyph>
<glyph name="heartsuitwhite" format="2">
  <advance width="959"/>
  <outline>
    <contour>
      <point x="179" y="538" type="curve" smooth="yes"/>
      <point x="179" y="610"/>
      <point x="225" y="659"/>
      <point x="309" y="659" type="curve" smooth="yes"/>
      <point x="411" y="659"/>
      <point x="481" y="553"/>
      <point x="517" y="468" type="curve"/>
      <point x="528" y="468" type="line"/>
      <point x="563" y="553"/>
      <point x="633" y="659"/>
      <point x="736" y="659" type="curve" smooth="yes"/>
      <point x="819" y="659"/>
      <point x="865" y="610"/>
      <point x="865" y="538" type="curve" smooth="yes"/>
      <point x="865" y="451"/>
      <point x="820" y="402"/>
      <point x="745" y="315" type="curve" smooth="yes"/>
      <point x="527" y="65" type="line"/>
      <point x="517" y="65" type="line"/>
      <point x="299" y="315" type="line" smooth="yes"/>
      <point x="224" y="402"/>
      <point x="179" y="451"/>
    </contour>
    <contour>
      <point x="117" y="535" type="curve" smooth="yes"/>
      <point x="117" y="434"/>
      <point x="169" y="375"/>
      <point x="259" y="273" type="curve" smooth="yes"/>
      <point x="510" y="-10" type="line"/>
      <point x="534" y="-10" type="line"/>
      <point x="785" y="273" type="line" smooth="yes"/>
      <point x="876" y="375"/>
      <point x="927" y="434"/>
      <point x="927" y="535" type="curve" smooth="yes"/>
      <point x="927" y="632"/>
      <point x="855" y="710"/>
      <point x="732" y="710" type="curve" smooth="yes"/>
      <point x="634" y="710"/>
      <point x="563" y="657"/>
      <point x="523" y="569" type="curve"/>
      <point x="481" y="657"/>
      <point x="410" y="710"/>
      <point x="312" y="710" type="curve" smooth="yes"/>
      <point x="189" y="710"/>
      <point x="117" y="632"/>
    </contour>
  </outline>
</glyph>
<glyph name="hook.uc" format="2">
  <advance width="530"/>
  <anchor x="235" y="679" name="_top"/>
  <outline>
    <contour>
      <point x="110" y="940" type="line"/>
      <point x="136" y="1021"/>
      <point x="201" y="1059"/>
      <point x="286" y="1059" type="curve" smooth="yes"/>
      <point x="388" y="1059"/>
      <point x="434" y="1022"/>
      <point x="434" y="967" type="curve" smooth="yes"/>
      <point x="434" y="869"/>
      <point x="362" y="852"/>
      <point x="248" y="852" type="curve"/>
      <point x="292" y="875" type="line"/>
      <point x="270" y="794" type="line"/>
      <point x="214" y="794" type="line"/>
      <point x="238" y="886" type="line"/>
      <point x="323" y="889"/>
      <point x="377" y="886"/>
      <point x="377" y="964" type="curve" smooth="yes"/>
      <point x="377" y="1001"/>
      <point x="353" y="1020"/>
      <point x="287" y="1020" type="curve" smooth="yes"/>
      <point x="230" y="1020"/>
      <point x="191" y="999"/>
      <point x="169" y="940" type="curve"/>
    </contour>
  </outline>
</glyph>
<glyph name="hungarumlaut.uc" format="2">
  <advance width="530"/>
  <anchor x="283" y="694" name="_top"/>
  <outline>
    <contour>
      <point x="133" y="917" type="curve" smooth="yes"/>
      <point x="69" y="811" type="line"/>
      <point x="64" y="793" type="line"/>
      <point x="86" y="793" type="line"/>
      <point x="189" y="884" type="line" smooth="yes"/>
      <point x="222" y="912"/>
      <point x="240" y="926"/>
      <point x="240" y="951" type="curve" smooth="yes"/>
      <point x="240" y="969"/>
      <point x="223" y="983"/>
      <point x="201" y="983" type="curve" smooth="yes"/>
      <point x="167" y="983"/>
      <point x="152" y="952"/>
    </contour>
    <contour>
      <point x="321" y="917" type="curve" smooth="yes"/>
      <point x="257" y="811" type="line"/>
      <point x="252" y="793" type="line"/>
      <point x="273" y="793" type="line"/>
      <point x="376" y="884" type="line" smooth="yes"/>
      <point x="410" y="912"/>
      <point x="428" y="926"/>
      <point x="428" y="951" type="curve" smooth="yes"/>
      <point x="428" y="969"/>
      <point x="411" y="983"/>
      <point x="389" y="983" type="curve" smooth="yes"/>
      <point x="355" y="983"/>
      <point x="340" y="952"/>
    </contour>
  </outline>
</glyph>
<glyph name="lira.alt" format="2">
  <advance width="594"/>
  <outline>
    <contour>
      <point x="-32" y="0" type="line"/>
      <point x="470" y="0" type="line"/>
      <point x="522" y="192" type="line"/>
      <point x="477" y="192" type="line"/>
      <point x="431" y="81" type="line" smooth="yes"/>
      <point x="416" y="45"/>
      <point x="377" y="36"/>
      <point x="286" y="36" type="curve" smooth="yes"/>
      <point x="-1" y="36" type="line"/>
      <point x="17" y="12" type="line"/>
      <point x="161" y="87"/>
      <point x="235" y="182"/>
      <point x="235" y="298" type="curve" smooth="yes"/>
      <point x="235" y="381"/>
      <point x="202" y="456"/>
      <point x="202" y="534" type="curve" smooth="yes"/>
      <point x="202" y="643"/>
      <point x="272" y="701"/>
      <point x="384" y="701" type="curve" smooth="yes"/>
      <point x="460" y="701"/>
      <point x="504" y="690"/>
      <point x="557" y="656" type="curve"/>
      <point x="547" y="669"/>
      <point x="550" y="691"/>
      <point x="528" y="706" type="curve"/>
      <point x="498" y="592" type="line"/>
      <point x="546" y="592" type="line"/>
      <point x="574" y="691" type="line"/>
      <point x="560" y="700"/>
      <point x="504" y="735"/>
      <point x="387" y="735" type="curve" smooth="yes"/>
      <point x="244" y="735"/>
      <point x="150" y="664"/>
      <point x="150" y="527" type="curve" smooth="yes"/>
      <point x="150" y="442"/>
      <point x="189" y="377"/>
      <point x="189" y="282" type="curve" smooth="yes"/>
      <point x="189" y="182"/>
      <point x="104" y="95"/>
      <point x="-22" y="32" type="curve"/>
    </contour>
    <contour>
      <point x="30" y="294" type="line"/>
      <point x="21" y="259" type="line"/>
      <point x="428" y="259" type="line"/>
      <point x="437" y="294" type="line"/>
    </contour>
    <contour>
      <point x="56" y="465" type="line"/>
      <point x="47" y="429" type="line"/>
      <point x="454" y="429" type="line"/>
      <point x="463" y="465" type="line"/>
    </contour>
  </outline>
</glyph>
<glyph name="minus.sub" format="2">
  <advance width="446"/>
  <outline>
    <contour>
      <point x="394" y="100" type="line"/>
      <point x="65" y="100" type="line"/>
      <point x="55" y="66" type="line"/>
      <point x="384" y="66" type="line"/>
    </contour>
  </outline>
</glyph>
<glyph name="naira.proportional" format="2">
  <advance width="761"/>
  <outline>
    <contour>
      <point x="76" y="455" type="line"/>
      <point x="206" y="455" type="line"/>
      <point x="219" y="489" type="line"/>
      <point x="87" y="489" type="line"/>
    </contour>
    <contour>
      <point x="363" y="462" type="line"/>
      <point x="604" y="460" type="line"/>
      <point x="602" y="455" type="line"/>
      <point x="739" y="455" type="line"/>
      <point x="750" y="489" type="line"/>
      <point x="372" y="489" type="line"/>
    </contour>
    <contour>
      <point x="528" y="223" type="line"/>
      <point x="680" y="223" type="line"/>
      <point x="690" y="258" type="line"/>
      <point x="540" y="258" type="line"/>
    </contour>
    <contour>
      <point x="16" y="223" type="line"/>
      <point x="420" y="223" type="line"/>
      <point x="427" y="250" type="line"/>
      <point x="159" y="253" type="line"/>
      <point x="161" y="258" type="line"/>
      <point x="26" y="258" type="line"/>
    </contour>
    <contour>
      <point x="-15" y="0" type="line"/>
      <point x="185" y="0" type="line"/>
      <point x="196" y="36" type="line"/>
      <point x="182" y="36" type="line" smooth="yes"/>
      <point x="149" y="36"/>
      <point x="128" y="42"/>
      <point x="130" y="49" type="curve" smooth="yes"/>
      <point x="300" y="696" type="line"/>
      <point x="294" y="698" type="line"/>
      <point x="438" y="0" type="line"/>
      <point x="502" y="0" type="line"/>
      <point x="669" y="633" type="line" smooth="yes"/>
      <point x="676" y="662"/>
      <point x="706" y="674"/>
      <point x="741" y="674" type="curve" smooth="yes"/>
      <point x="769" y="674" type="line"/>
      <point x="780" y="710" type="line"/>
      <point x="583" y="710" type="line"/>
      <point x="572" y="674" type="line"/>
      <point x="587" y="674" type="line" smooth="yes"/>
      <point x="620" y="674"/>
      <point x="638" y="668"/>
      <point x="636" y="661" type="curve" smooth="yes"/>
      <point x="471" y="35" type="line"/>
      <point x="480" y="18" type="line"/>
      <point x="338" y="710" type="line"/>
      <point x="174" y="710" type="line"/>
      <point x="163" y="674" type="line"/>
      <point x="191" y="674" type="line" smooth="yes"/>
      <point x="226" y="674"/>
      <point x="250" y="667"/>
      <point x="243" y="638" type="curve" smooth="yes"/>
      <point x="97" y="77" type="line" smooth="yes"/>
      <point x="89" y="48"/>
      <point x="59" y="36"/>
      <point x="24" y="36" type="curve" smooth="yes"/>
      <point x="-4" y="36" type="line"/>
    </contour>
  </outline>
</glyph>
<glyph name="nine.lintab" format="2">
  <advance width="594"/>
  <outline>
    <contour>
      <point x="332" y="735" type="curve" smooth="yes"/>
      <point x="468" y="735"/>
      <point x="544" y="670"/>
      <point x="544" y="512" type="curve" smooth="yes"/>
      <point x="544" y="242"/>
      <point x="415" y="-16"/>
      <point x="36" y="-15" type="curve"/>
      <point x="37" y="24" type="line"/>
      <point x="266" y="21"/>
      <point x="397" y="121"/>
      <point x="455" y="279" type="curve" smooth="yes"/>
      <point x="482" y="344"/>
      <point x="494" y="421"/>
      <point x="494" y="510" type="curve" smooth="yes"/>
      <point x="494" y="653"/>
      <point x="427" y="695"/>
      <point x="329" y="695" type="curve" smooth="yes"/>
      <point x="234" y="695"/>
      <point x="178" y="635"/>
      <point x="149" y="564" type="curve" smooth="yes"/>
      <point x="132" y="521"/>
      <point x="124" y="473"/>
      <point x="124" y="432" type="curve" smooth="yes"/>
      <point x="124" y="355"/>
      <point x="166" y="305"/>
      <point x="265" y="305" type="curve" smooth="yes"/>
      <point x="361" y="305"/>
      <point x="414" y="366"/>
      <point x="506" y="495" type="curve"/>
      <point x="501" y="453" type="line"/>
      <point x="428" y="329"/>
      <point x="346" y="264"/>
      <point x="254" y="264" type="curve" smooth="yes"/>
      <point x="139" y="264"/>
      <point x="70" y="328"/>
      <point x="70" y="434" type="curve" smooth="yes"/>
      <point x="70" y="578"/>
      <point x="153" y="735"/>
    </contour>
  </outline>
</glyph>
<glyph name="nine.oldprop" format="2">
  <advance width="594"/>
  <outline>
    <contour>
      <point x="9" y="-43" type="line"/>
      <point x="224" y="-38"/>
      <point x="368" y="45"/>
      <point x="442" y="179" type="curve" smooth="yes"/>
      <point x="482" y="246"/>
      <point x="501" y="325"/>
      <point x="501" y="415" type="curve" smooth="yes"/>
      <point x="501" y="566"/>
      <point x="438" y="627"/>
      <point x="330" y="627" type="curve" smooth="yes"/>
      <point x="234" y="627"/>
      <point x="174" y="576"/>
      <point x="143" y="505" type="curve" smooth="yes"/>
      <point x="126" y="465"/>
      <point x="117" y="419"/>
      <point x="117" y="373" type="curve" smooth="yes"/>
      <point x="117" y="300"/>
      <point x="153" y="236"/>
      <point x="250" y="236" type="curve" smooth="yes"/>
      <point x="360" y="236"/>
      <point x="418" y="295"/>
      <point x="516" y="443" type="curve"/>
      <point x="513" y="399" type="line"/>
      <point x="436" y="258"/>
      <point x="350" y="196"/>
      <point x="244" y="196" type="curve" smooth="yes"/>
      <point x="120" y="196"/>
      <point x="63" y="272"/>
      <point x="63" y="375" type="curve" smooth="yes"/>
      <point x="63" y="529"/>
      <point x="157" y="667"/>
      <point x="333" y="667" type="curve"/>
      <point x="471" y="667"/>
      <point x="552" y="598"/>
      <point x="552" y="420" type="curve" smooth="yes"/>
      <point x="552" y="152"/>
      <point x="375" y="-72"/>
      <point x="14" y="-83" type="curve"/>
    </contour>
  </outline>
</glyph>
<glyph name="plus.sub" format="2">
  <advance width="446"/>
  <outline>
    <contour>
      <point x="244" y="241" type="line"/>
      <point x="160" y="-75" type="line"/>
      <point x="205" y="-75" type="line"/>
      <point x="289" y="241" type="line"/>
    </contour>
    <contour>
      <point x="394" y="100" type="line"/>
      <point x="65" y="100" type="line"/>
      <point x="55" y="66" type="line"/>
      <point x="384" y="66" type="line"/>
    </contour>
  </outline>
</glyph>
<glyph name="six.midprop" format="2">
  <advance width="594"/>
  <outline>
    <contour>
      <point x="598" y="700" type="line"/>
      <point x="394" y="697"/>
      <point x="250" y="613"/>
      <point x="169" y="484" type="curve" smooth="yes"/>
      <point x="120" y="409"/>
      <point x="95" y="318"/>
      <point x="95" y="216" type="curve" smooth="yes"/>
      <point x="95" y="98"/>
      <point x="161" y="31"/>
      <point x="273" y="31" type="curve" smooth="yes"/>
      <point x="374" y="31"/>
      <point x="436" y="90"/>
      <point x="462" y="170" type="curve" smooth="yes"/>
      <point x="475" y="207"/>
      <point x="481" y="246"/>
      <point x="481" y="287" type="curve" smooth="yes"/>
      <point x="481" y="361"/>
      <point x="439" y="428"/>
      <point x="342" y="428" type="curve" smooth="yes"/>
      <point x="234" y="428"/>
      <point x="179" y="370"/>
      <point x="80" y="227" type="curve"/>
      <point x="83" y="268" type="line"/>
      <point x="162" y="406"/>
      <point x="245" y="468"/>
      <point x="348" y="468" type="curve" smooth="yes"/>
      <point x="472" y="468"/>
      <point x="535" y="389"/>
      <point x="535" y="284" type="curve" smooth="yes"/>
      <point x="535" y="129"/>
      <point x="442" y="-10"/>
      <point x="270" y="-10" type="curve" smooth="yes"/>
      <point x="129" y="-10"/>
      <point x="44" y="66"/>
      <point x="44" y="212" type="curve" smooth="yes"/>
      <point x="44" y="481"/>
      <point x="233" y="732"/>
      <point x="593" y="740" type="curve"/>
    </contour>
  </outline>
</glyph>
<glyph name="six.oldprop" format="2">
  <advance width="594"/>
  <outline>
    <contour>
      <point x="602" y="700" type="curve"/>
      <point x="597" y="740" type="line"/>
      <point x="237" y="732"/>
      <point x="48" y="468"/>
      <point x="48" y="212" type="curve" smooth="yes"/>
      <point x="48" y="66"/>
      <point x="133" y="-10"/>
      <point x="274" y="-10" type="curve" smooth="yes"/>
      <point x="446" y="-10"/>
      <point x="539" y="129"/>
      <point x="539" y="284" type="curve" smooth="yes"/>
      <point x="539" y="389"/>
      <point x="476" y="468"/>
      <point x="352" y="468" type="curve" smooth="yes"/>
      <point x="249" y="468"/>
      <point x="166" y="406"/>
      <point x="87" y="268" type="curve"/>
      <point x="84" y="227" type="line"/>
      <point x="183" y="370"/>
      <point x="238" y="428"/>
      <point x="346" y="428" type="curve" smooth="yes"/>
      <point x="443" y="428"/>
      <point x="485" y="361"/>
      <point x="485" y="287" type="curve" smooth="yes"/>
      <point x="485" y="223"/>
      <point x="473" y="162"/>
      <point x="445" y="115" type="curve" smooth="yes"/>
      <point x="412" y="64"/>
      <point x="357" y="31"/>
      <point x="278" y="31" type="curve" smooth="yes"/>
      <point x="165" y="31"/>
      <point x="99" y="98"/>
      <point x="99" y="216" type="curve" smooth="yes"/>
      <point x="99" y="306"/>
      <point x="121" y="391"/>
      <point x="164" y="463" type="curve" smooth="yes"/>
      <point x="242" y="602"/>
      <point x="391" y="697"/>
    </contour>
  </outline>
</glyph>
<glyph name="two.lintab" format="2">
  <advance width="593"/>
  <outline>
    <contour>
      <point x="-38" y="0" type="line"/>
      <point x="-24" y="41" type="line"/>
      <point x="324" y="290"/>
      <point x="499" y="375"/>
      <point x="499" y="570" type="curve" smooth="yes"/>
      <point x="499" y="650"/>
      <point x="449" y="690"/>
      <point x="354" y="690" type="curve" smooth="yes"/>
      <point x="271" y="690"/>
      <point x="214" y="676"/>
      <point x="178" y="653" type="curve"/>
      <point x="189" y="673"/>
      <point x="211" y="689"/>
      <point x="226" y="680" type="curve"/>
      <point x="181" y="508" type="line"/>
      <point x="117" y="508" type="line"/>
      <point x="164" y="691" type="line"/>
      <point x="200" y="710"/>
      <point x="271" y="735"/>
      <point x="354" y="735" type="curve" smooth="yes"/>
      <point x="484" y="735"/>
      <point x="557" y="685"/>
      <point x="557" y="570" type="curve" smooth="yes"/>
      <point x="557" y="358"/>
      <point x="312" y="237"/>
      <point x="4" y="20" type="curve"/>
      <point x="3" y="33" type="line"/>
      <point x="272" y="33" type="line" smooth="yes"/>
      <point x="358" y="33"/>
      <point x="396" y="40"/>
      <point x="407" y="74" type="curve" smooth="yes"/>
      <point x="444" y="178" type="line"/>
      <point x="491" y="178" type="line"/>
      <point x="444" y="0" type="line"/>
    </contour>
  </outline>
</glyph>
<glyph name="zero.slashlin" format="2">
  <advance width="594"/>
  <outline>
    <contour>
      <point x="228" y="-11" type="curve" smooth="yes"/>
      <point x="463" y="-11"/>
      <point x="558" y="303"/>
      <point x="558" y="523" type="curve" smooth="yes"/>
      <point x="558" y="668"/>
      <point x="492" y="735"/>
      <point x="366" y="735" type="curve" smooth="yes"/>
      <point x="131" y="735"/>
      <point x="35" y="421"/>
      <point x="35" y="202" type="curve" smooth="yes"/>
      <point x="35" y="56"/>
      <point x="101" y="-11"/>
    </contour>
    <contour>
      <point x="233" y="28" type="curve" smooth="yes"/>
      <point x="130" y="28"/>
      <point x="87" y="82"/>
      <point x="87" y="192" type="curve" smooth="yes"/>
      <point x="87" y="247"/>
      <point x="94" y="312"/>
      <point x="112" y="393" type="curve" smooth="yes"/>
      <point x="157" y="593"/>
      <point x="240" y="697"/>
      <point x="360" y="697" type="curve" smooth="yes"/>
      <point x="464" y="697"/>
      <point x="507" y="642"/>
      <point x="507" y="533" type="curve" smooth="yes"/>
      <point x="507" y="477"/>
      <point x="500" y="412"/>
      <point x="482" y="331" type="curve" smooth="yes"/>
      <point x="437" y="131"/>
      <point x="354" y="28"/>
    </contour>
    <contour>
      <point x="72" y="172" type="line"/>
      <point x="540" y="518" type="line"/>
      <point x="526" y="552" type="line"/>
      <point x="54" y="202" type="line"/>
    </contour>
  </outline>
</glyph>
